name Run_200 02_newCOP3_v24.mot
datacolumns 19
datarows 42
range 0.13 0.1505
DataType=double
version=3
OpenSimVersion=4.3-2021-08-27-4bc7ad9
endheader
time	R_ground_force_vx	R_ground_force_vy	R_ground_force_vz	R_ground_force_px	R_ground_force_py	R_ground_force_pz	L_ground_force_vx	L_ground_force_vy	L_ground_force_vz	L_ground_force_px	L_ground_force_py	L_ground_force_pz	R_ground_torque_x	R_ground_torque_y	R_ground_torque_z	L_ground_torque_x	L_ground_torque_y	L_ground_torque_z
0.13	-118.684937	1382.850098	-47.95813	1.216459	0	-0.268119	0	0	0	0	0	0	0	-1.341673	0	0	0	0
0.1305	-118.219872	1384.970215	-48.000828	1.21619	0	-0.268101	0	0	0	0	0	0	0	-1.371992	0	0	0	0
0.131	-117.735405	1387.189941	-48.046562	1.215908	0	-0.268083	0	0	0	0	0	0	0	-1.402032	0	0	0	0
0.1315	-117.232925	1389.505127	-48.095501	1.215614	0	-0.268065	0	0	0	0	0	0	0	-1.43178	0	0	0	0
0.132	-116.713799	1391.911865	-48.147797	1.215307	0	-0.268046	0	0	0	0	0	0	0	-1.461221	0	0	0	0
0.1325	-116.179382	1394.406006	-48.203613	1.214989	0	-0.268026	0	0	0	0	0	0	0	-1.49034	0	0	0	0
0.133	-115.630989	1396.983887	-48.263115	1.214659	0	-0.268006	0	0	0	0	0	0	0	-1.519126	0	0	0	0
0.1335	-115.069908	1399.641235	-48.326454	1.214318	0	-0.267986	0	0	0	0	0	0	0	-1.547564	0	0	0	0
0.134	-114.497406	1402.374268	-48.393784	1.213966	0	-0.267965	0	0	0	0	0	0	0	-1.575642	0	0	0	0
0.1345	-113.91468	1405.179077	-48.465244	1.213604	0	-0.267945	0	0	0	0	0	0	0	-1.603347	0	0	0	0
0.135	-113.322899	1408.051758	-48.540981	1.213232	0	-0.267923	0	0	0	0	0	0	0	-1.630666	0	0	0	0
0.1355	-112.72319	1410.988159	-48.621117	1.21285	0	-0.267902	0	0	0	0	0	0	0	-1.657589	0	0	0	0
0.136	-112.116592	1413.984375	-48.705769	1.212458	0	-0.267881	0	0	0	0	0	0	0	-1.684103	0	0	0	0
0.1365	-111.504105	1417.036377	-48.795044	1.212057	0	-0.267859	0	0	0	0	0	0	0	-1.710198	0	0	0	0
0.137	-110.886658	1420.140381	-48.889034	1.211648	0	-0.267838	0	0	0	0	0	0	0	-1.735862	0	0	0	0
0.1375	-110.265106	1423.292236	-48.987827	1.211229	0	-0.267816	0	0	0	0	0	0	0	-1.761085	0	0	0	0
0.138	-109.640236	1426.488037	-49.09148	1.210803	0	-0.267795	0	0	0	0	0	0	0	-1.785858	0	0	0	0
0.1385	-109.012772	1429.723999	-49.200047	1.210368	0	-0.267774	0	0	0	0	0	0	0	-1.810171	0	0	0	0
0.139	-108.383347	1432.995972	-49.31356	1.209926	0	-0.267752	0	0	0	0	0	0	0	-1.834015	0	0	0	0
0.1395	-107.752518	1436.300293	-49.432037	1.209476	0	-0.267731	0	0	0	0	0	0	0	-1.857381	0	0	0	0
0.14	-107.120796	1439.633179	-49.555485	1.209019	0	-0.26771	0	0	0	0	0	0	0	-1.880261	0	0	0	0
0.1405	-106.488579	1442.990845	-49.68388	1.208555	0	-0.26769	0	0	0	0	0	0	0	-1.902648	0	0	0	0
0.141	-105.856232	1446.369507	-49.817192	1.208084	0	-0.267669	0	0	0	0	0	0	0	-1.924535	0	0	0	0
0.1415	-105.22403	1449.765747	-49.955368	1.207607	0	-0.267649	0	0	0	0	0	0	0	-1.945914	0	0	0	0
0.142	-104.592194	1453.175903	-50.098339	1.207123	0	-0.267629	0	0	0	0	0	0	0	-1.96678	0	0	0	0
0.1425	-103.960869	1456.59668	-50.246017	1.206633	0	-0.267609	0	0	0	0	0	0	0	-1.987127	0	0	0	0
0.143	-103.330162	1460.024536	-50.398304	1.206138	0	-0.26759	0	0	0	0	0	0	0	-2.006949	0	0	0	0
0.1435	-102.700119	1463.456421	-50.555069	1.205637	0	-0.26757	0	0	0	0	0	0	0	-2.026241	0	0	0	0
0.144	-102.070717	1466.889038	-50.716179	1.20513	0	-0.267551	0	0	0	0	0	0	0	-2.045	0	0	0	0
0.1445	-101.441925	1470.319336	-50.881481	1.204618	0	-0.267533	0	0	0	0	0	0	0	-2.063221	0	0	0	0
0.145	-100.813652	1473.744507	-51.0508	1.204101	0	-0.267514	0	0	0	0	0	0	0	-2.080901	0	0	0	0
0.1455	-100.18576	1477.161621	-51.223957	1.203579	0	-0.267496	0	0	0	0	0	0	0	-2.098038	0	0	0	0
0.146	-99.55811300000001	1480.567993	-51.400749	1.203052	0	-0.267478	0	0	0	0	0	0	0	-2.114628	0	0	0	0
0.1465	-98.930511	1483.96106	-51.580963	1.20252	0	-0.267461	0	0	0	0	0	0	0	-2.13067	0	0	0	0
0.147	-98.30275	1487.338379	-51.764378	1.201984	0	-0.267443	0	0	0	0	0	0	0	-2.146163	0	0	0	0
0.1475	-97.67461400000001	1490.69751	-51.950756	1.201444	0	-0.267426	0	0	0	0	0	0	0	-2.161105	0	0	0	0
0.148	-97.045845	1494.036255	-52.139851	1.200899	0	-0.267409	0	0	0	0	0	0	0	-2.175497	0	0	0	0
0.1485	-96.416206	1497.352417	-52.331406	1.20035	0	-0.267393	0	0	0	0	0	0	0	-2.189337	0	0	0	0
0.149	-95.78542299999999	1500.644043	-52.525162	1.199796	0	-0.267376	0	0	0	0	0	0	0	-2.202627	0	0	0	0
0.1495	-95.153229	1503.909302	-52.720848	1.199239	0	-0.26736	0	0	0	0	0	0	0	-2.215368	0	0	0	0
0.15	-94.519333	1507.146362	-52.91819	1.198678	0	-0.267344	0	0	0	0	0	0	0	-2.22756	0	0	0	0
0.1505	-93.883461	1510.353516	-53.116909	1.198113	0	-0.267328	0	0	0	0	0	0	0	-2.239206	0	0	0	0
